<svg xmlns="http://www.w3.org/2000/svg"  viewBox="0 0 100 100" width="100px" height="100px"><path fill="#c7ede6" d="M87.215,56.71C88.35,54.555,89,52.105,89,49.5c0-6.621-4.159-12.257-10.001-14.478 C78.999,35.015,79,35.008,79,35c0-11.598-9.402-21-21-21c-9.784,0-17.981,6.701-20.313,15.757C36.211,29.272,34.638,29,33,29 c-7.692,0-14.023,5.793-14.89,13.252C12.906,43.353,9,47.969,9,53.5C9,59.851,14.149,65,20.5,65c0.177,0,0.352-0.012,0.526-0.022 C21.022,65.153,21,65.324,21,65.5C21,76.822,30.178,86,41.5,86c6.437,0,12.175-2.972,15.934-7.614C59.612,80.611,62.64,82,66,82 c4.65,0,8.674-2.65,10.666-6.518C77.718,75.817,78.837,76,80,76c6.075,0,11-4.925,11-11C91,61.689,89.53,58.727,87.215,56.71z"/><path fill="#fdfcef" d="M44.629,38.5c0,0,3.64,0,6.125,0s4.5-2.015,4.5-4.5c0-2.333-1.782-4.229-4.055-4.455 c0.022-0.181,0.055-0.358,0.055-0.545c0-2.485-2.015-4.5-4.5-4.5c-1.438,0-2.703,0.686-3.527,1.736 c-0.14-2.636-2.302-4.736-4.973-4.736c-2.761,0-5,2.239-5,5c0,0.446,0.077,0.87,0.187,1.282c-0.642-0.777-1.6-1.282-2.687-1.282 c-1.781,0-3.234,1.335-3.455,3.055c-0.181-0.022-0.358-0.055-0.545-0.055c-2.485,0-4.5,2.015-4.5,4.5s2.015,4.5,4.5,4.5 s9.5,0,9.5,0h5.375V39h3V38.5z"/><path fill="#472b29" d="M38.254,21c-3.033,0-5.5,2.467-5.5,5.5c0,0.016,0,0.031,0,0.047c-0.602-0.354-1.29-0.547-2-0.547 c-1.831,0-3.411,1.261-3.858,3.005C26.849,29.002,26.802,29,26.754,29c-2.757,0-5,2.243-5,5s2.243,5,5,5h14.875 c0.276,0,0.5-0.224,0.5-0.5s-0.224-0.5-0.5-0.5H26.754c-2.206,0-4-1.794-4-4s1.794-4,4-4c0.117,0,0.23,0.017,0.343,0.032 l0.141,0.019c0.021,0.003,0.041,0.004,0.062,0.004c0.246,0,0.462-0.185,0.495-0.437C27.987,28.125,29.258,27,30.754,27 c0.885,0,1.723,0.401,2.301,1.1c0.098,0.118,0.241,0.182,0.386,0.182c0.078,0,0.156-0.018,0.228-0.056 c0.209-0.107,0.314-0.346,0.254-0.573c-0.116-0.436-0.17-0.802-0.17-1.153c0-2.481,2.019-4.5,4.5-4.5 c2.381,0,4.347,1.872,4.474,4.263c0.011,0.208,0.15,0.387,0.349,0.45c0.05,0.016,0.101,0.024,0.152,0.024 c0.15,0,0.296-0.069,0.392-0.192C44.392,25.563,45.533,25,46.754,25c2.206,0,4,1.794,4,4c0,0.117-0.017,0.23-0.032,0.343 l-0.019,0.141c-0.016,0.134,0.022,0.268,0.106,0.373c0.084,0.105,0.207,0.172,0.34,0.185c2.055,0.205,3.604,1.906,3.604,3.958 c0,2.206-1.794,4-4,4h-6.125c-0.276,0-0.5,0.224-0.5,0.5s0.224,0.5,0.5,0.5h6.125c2.757,0,5-2.243,5-5 c0-2.397-1.689-4.413-4.003-4.877c0.002-0.041,0.003-0.082,0.003-0.123c0-2.757-2.243-5-5-5c-1.176,0-2.293,0.416-3.183,1.164 C42.973,22.76,40.809,21,38.254,21L38.254,21z"/><path fill="#472b29" d="M36.754,28c-1.403,0-2.609,0.999-2.913,2.341C33.474,30.119,33.055,30,32.629,30 c-1.202,0-2.198,0.897-2.353,2.068C30.073,32.022,29.88,32,29.692,32c-1.529,0-2.811,1.2-2.918,2.732 C26.764,34.87,26.868,34.99,27.006,35c0.006,0,0.012,0,0.018,0c0.13,0,0.24-0.101,0.249-0.232 c0.089-1.271,1.151-2.268,2.419-2.268c0.229,0,0.47,0.042,0.738,0.127c0.022,0.007,0.045,0.01,0.067,0.01 c0.055,0,0.11-0.02,0.156-0.054c0.064-0.047,0.102-0.129,0.102-0.209c0-1.034,0.841-1.875,1.875-1.875 c0.447,0,0.885,0.168,1.231,0.473c0.047,0.041,0.106,0.063,0.165,0.063c0.032,0,0.063-0.006,0.093-0.019 c0.088-0.035,0.148-0.117,0.155-0.212c0.102-1.292,1.191-2.305,2.479-2.305c0.208,0,0.425,0.034,0.682,0.107 c0.023,0.007,0.047,0.01,0.07,0.01c0.109,0,0.207-0.073,0.239-0.182c0.038-0.133-0.039-0.271-0.172-0.309 C37.271,28.04,37.01,28,36.754,28L36.754,28z"/><path fill="#fff" d="M34.405,78H24.5c-0.276,0-0.5-0.224-0.5-0.5s0.224-0.5,0.5-0.5h9.905c0.276,0,0.5,0.224,0.5,0.5 S34.682,78,34.405,78z"/><path fill="#fff" d="M37.5,78h-1c-0.276,0-0.5-0.224-0.5-0.5s0.224-0.5,0.5-0.5h1c0.276,0,0.5,0.224,0.5,0.5 S37.777,78,37.5,78z"/><path fill="#fff" d="M42.491,80H33.5c-0.276,0-0.5-0.224-0.5-0.5s0.224-0.5,0.5-0.5h8.991c0.276,0,0.5,0.224,0.5,0.5 S42.767,80,42.491,80z"/><path fill="#fff" d="M31.5,80h-1c-0.276,0-0.5-0.224-0.5-0.5s0.224-0.5,0.5-0.5h1c0.276,0,0.5,0.224,0.5,0.5 S31.777,80,31.5,80z"/><path fill="#fff" d="M28.5,80h-2c-0.276,0-0.5-0.224-0.5-0.5s0.224-0.5,0.5-0.5h2c0.276,0,0.5,0.224,0.5,0.5 S28.777,80,28.5,80z"/><path fill="#fff" d="M34.5,82h-2c-0.276,0-0.5-0.224-0.5-0.5s0.224-0.5,0.5-0.5h2c0.276,0,0.5,0.224,0.5,0.5 S34.776,82,34.5,82z"/><path fill="#fff" d="M37.5,73c-0.177,0-0.823,0-1,0c-0.276,0-0.5,0.224-0.5,0.5c0,0.276,0.224,0.5,0.5,0.5 c0.177,0,0.823,0,1,0c0.276,0,0.5-0.224,0.5-0.5C38,73.224,37.776,73,37.5,73z"/><path fill="#fff" d="M37.5,75c-0.177,0-4.823,0-5,0c-0.276,0-0.5,0.224-0.5,0.5c0,0.276,0.224,0.5,0.5,0.5 c0.177,0,4.823,0,5,0c0.276,0,0.5-0.224,0.5-0.5C38,75.224,37.776,75,37.5,75z"/><path fill="#fff" d="M42.5,77c-0.177,0-2.823,0-3,0c-0.276,0-0.5,0.224-0.5,0.5c0,0.276,0.224,0.5,0.5,0.5 c0.177,0,2.823,0,3,0c0.276,0,0.5-0.224,0.5-0.5C43,77.224,42.776,77,42.5,77z"/><g><path fill="#fff" d="M73.5,28h-10c-0.276,0-0.5-0.224-0.5-0.5s0.224-0.5,0.5-0.5h10c0.276,0,0.5,0.224,0.5,0.5 S73.776,28,73.5,28z"/><path fill="#fff" d="M77.5,28h-2c-0.276,0-0.5-0.224-0.5-0.5s0.224-0.5,0.5-0.5h2c0.276,0,0.5,0.224,0.5,0.5 S77.776,28,77.5,28z"/><path fill="#fff" d="M82.5,30h-10c-0.276,0-0.5-0.224-0.5-0.5s0.224-0.5,0.5-0.5h10c0.276,0,0.5,0.224,0.5,0.5 S82.777,30,82.5,30z"/><path fill="#fff" d="M70.5,30h-1c-0.276,0-0.5-0.224-0.5-0.5s0.224-0.5,0.5-0.5h1c0.276,0,0.5,0.224,0.5,0.5 S70.776,30,70.5,30z"/><path fill="#fff" d="M67.375,30H65.5c-0.276,0-0.5-0.224-0.5-0.5s0.224-0.5,0.5-0.5h1.875c0.276,0,0.5,0.224,0.5,0.5 S67.651,30,67.375,30z"/><path fill="#fff" d="M76.5,26h-5c-0.276,0-0.5-0.224-0.5-0.5s0.224-0.5,0.5-0.5h5c0.276,0,0.5,0.224,0.5,0.5 S76.777,26,76.5,26z"/><path fill="#fff" d="M73.5,32h-2c-0.276,0-0.5-0.224-0.5-0.5s0.224-0.5,0.5-0.5h2c0.276,0,0.5,0.224,0.5,0.5 S73.776,32,73.5,32z"/></g><path fill="#fdfcef" d="M43.962,51.523c0.206-3.681,2.009-6.924,4.728-9.223c2.667-2.258,6.256-3.638,10.173-3.638 c3.913,0,7.502,1.38,10.171,3.638c2.717,2.299,4.52,5.542,4.728,9.219c0.206,3.782-1.314,7.296-3.981,9.9 c-2.719,2.649-6.587,4.312-10.918,4.312s-8.207-1.662-10.924-4.312C45.27,58.814,43.754,55.301,43.962,51.523L43.962,51.523z"/><path fill="#355ca8" d="M52.201,51.9c0.092-1.643,0.897-3.091,2.111-4.117c1.19-1.008,2.793-1.624,4.541-1.624 c1.746,0,3.349,0.616,4.54,1.624c1.213,1.026,2.018,2.474,2.111,4.115c0.092,1.688-0.587,3.257-1.777,4.419 c-1.214,1.183-2.94,1.925-4.874,1.925c-1.933,0-3.663-0.742-4.876-1.925C52.784,55.155,52.108,53.587,52.201,51.9L52.201,51.9z"/><path fill="#472b29" d="M58.852,58.742c-2.002,0-3.858-0.734-5.226-2.067c-1.34-1.309-2.024-3.014-1.925-4.803v0 c0.096-1.718,0.908-3.306,2.287-4.471c1.327-1.123,3.054-1.742,4.864-1.742c1.808,0,3.535,0.619,4.863,1.742 c1.378,1.166,2.19,2.753,2.287,4.469c0.098,1.79-0.586,3.496-1.927,4.805C62.707,58.008,60.852,58.742,58.852,58.742z M52.7,51.928 c-0.083,1.496,0.495,2.928,1.625,4.031c1.18,1.149,2.788,1.783,4.527,1.783c1.738,0,3.345-0.633,4.524-1.783 c1.131-1.104,1.708-2.537,1.627-4.034c-0.082-1.438-0.769-2.774-1.934-3.761c-1.147-0.971-2.646-1.505-4.217-1.505 c-1.574,0-3.071,0.535-4.218,1.505C53.467,49.151,52.78,50.488,52.7,51.928L52.7,51.928z"/><path fill="#f47c22" d="M39.031,55.681c0.013,0.739,0.249,2.175,0.602,3.297c0.743,2.374,2.004,4.57,3.758,6.506 c1.8,1.99,4.016,3.588,6.576,4.722c2.691,1.192,5.606,1.799,8.635,1.794c3.023-0.004,5.939-0.623,8.63-1.824 c2.56-1.146,4.774-2.751,6.571-4.741c1.753-1.944,3.011-4.144,3.757-6.518c0.375-1.2,0.611-2.417,0.706-3.639 c0.093-1.204,0.054-2.409-0.117-3.614c-0.334-2.347-1.146-4.55-2.396-6.557c-1.144-1.845-2.618-3.46-4.371-4.819l0.004-0.003 l-17.69-13.583c-0.016-0.012-0.029-0.025-0.046-0.036c-1.161-0.891-3.112-0.888-4.389,0.005c-1.29,0.903-1.438,2.396-0.29,3.338 l-0.005,0.005l7.378,6l-22.488,0.024h-0.03c-1.859,0.002-3.646,1.222-3.999,2.763c-0.364,1.57,0.899,2.873,2.832,2.88l-0.003,0.007 l11.398-0.022l-20.34,15.612c-0.026,0.019-0.054,0.039-0.078,0.058c-1.919,1.469-2.539,3.912-1.33,5.458 c1.227,1.572,3.834,1.575,5.773,0.009l11.101-9.085C39.18,53.718,39.018,54.944,39.031,55.681L39.031,55.681z M67.287,59.57 c-2.219,2.26-5.325,3.542-8.685,3.549c-3.366,0.006-6.472-1.264-8.69-3.521c-1.084-1.1-1.88-2.365-2.372-3.712 c-0.481-1.324-0.668-2.73-0.544-4.148c0.117-1.386,0.53-2.709,1.189-3.905c0.647-1.176,1.538-2.239,2.639-3.138 c2.157-1.757,4.902-2.709,7.774-2.713c2.874-0.004,5.618,0.939,7.777,2.69c1.099,0.895,1.989,1.954,2.636,3.128 c0.662,1.196,1.071,2.513,1.194,3.903c0.122,1.416-0.065,2.82-0.546,4.145C69.164,57.201,68.371,58.466,67.287,59.57L67.287,59.57z"/><path fill="#472b29" d="M58.565,72.7c-3.116,0-6.104-0.624-8.881-1.854c-2.644-1.172-4.935-2.818-6.812-4.893 c-1.813-2.001-3.127-4.278-3.907-6.767c-0.394-1.25-0.621-2.733-0.634-3.493l0,0c-0.002-0.118,0-0.247,0.004-0.38l-9.813,8.031 c-1.223,0.989-2.724,1.46-4.132,1.3c-1.083-0.125-2.019-0.629-2.636-1.42c-0.607-0.776-0.867-1.783-0.733-2.835 c0.174-1.361,0.972-2.677,2.189-3.609c0.006-0.004,0.089-0.066,0.096-0.071L41.987,42.37l-9.33,0.018 c-0.028,0.018-0.076-0.003-0.113-0.009c-1.198-0.032-2.239-0.501-2.87-1.297c-0.546-0.689-0.734-1.555-0.529-2.438 c0.425-1.85,2.48-3.302,4.68-3.305l20.552-0.021l-5.852-4.759c-0.031-0.024-0.059-0.051-0.084-0.081 c-0.64-0.562-0.975-1.299-0.945-2.084c0.034-0.875,0.531-1.712,1.364-2.295c1.525-1.067,3.816-1.062,5.216,0.014L71.812,39.73 c0.023,0.018,0.044,0.037,0.065,0.057c1.804,1.411,3.308,3.077,4.47,4.952c1.31,2.103,2.149,4.4,2.494,6.827 c0.177,1.25,0.219,2.517,0.122,3.766c-0.099,1.271-0.347,2.547-0.736,3.793c-0.782,2.492-2.096,4.772-3.905,6.779 c-1.876,2.078-4.166,3.73-6.805,4.912c-2.794,1.247-5.793,1.88-8.915,1.885C58.59,72.7,58.577,72.7,58.565,72.7z M39.18,53.018 c0.117,0,0.234,0.029,0.34,0.089c0.251,0.14,0.391,0.418,0.354,0.703c-0.001,0.012-0.155,1.184-0.143,1.858c0,0,0,0,0,0 c0.011,0.657,0.232,2.028,0.57,3.099c0.719,2.296,1.933,4.397,3.609,6.247c1.745,1.929,3.878,3.461,6.341,4.552 c2.598,1.151,5.396,1.734,8.314,1.734c0.012,0,0.023,0,0.036,0c2.925-0.003,5.732-0.597,8.345-1.763 c2.46-1.101,4.592-2.639,6.337-4.571c1.673-1.855,2.888-3.961,3.608-6.259c0.358-1.146,0.585-2.317,0.676-3.483 c0.088-1.147,0.05-2.312-0.112-3.461c-0.317-2.233-1.09-4.348-2.297-6.285c-1.089-1.757-2.504-3.317-4.206-4.636 c-0.021-0.016-0.04-0.033-0.059-0.051L53.269,27.258c-0.958-0.736-2.589-0.727-3.607-0.013c-0.471,0.33-0.751,0.767-0.768,1.201 c-0.015,0.377,0.166,0.731,0.52,1.022c0.025,0.021,0.049,0.043,0.071,0.067l7.3,5.936c0.23,0.187,0.317,0.498,0.218,0.777 c-0.099,0.279-0.363,0.466-0.659,0.466l-22.488,0.024c-1.58,0.001-3.068,0.997-3.348,2.219c-0.108,0.468-0.018,0.901,0.262,1.254 c0.384,0.485,1.073,0.766,1.89,0.768c0.033,0,0.065,0.003,0.097,0.007l11.294-0.022c0,0,0.001,0,0.001,0 c0.3,0,0.566,0.191,0.663,0.475c0.097,0.284,0.001,0.598-0.236,0.781L24.14,57.833c-1.001,0.765-1.604,1.74-1.73,2.733 c-0.061,0.48-0.033,1.182,0.447,1.796c0.494,0.632,1.193,0.833,1.693,0.891c1.034,0.115,2.158-0.245,3.088-0.995l11.098-9.083 C38.864,53.071,39.021,53.018,39.18,53.018z M58.578,63.819c-3.546,0-6.8-1.324-9.166-3.73c-1.143-1.159-1.994-2.493-2.53-3.964 c-0.521-1.432-0.717-2.929-0.584-4.449c0.124-1.465,0.552-2.873,1.272-4.181c0.695-1.264,1.641-2.388,2.81-3.343 c2.267-1.848,5.185-2.867,8.216-2.871c0.005,0,0.011,0,0.016,0c3.027,0,5.94,1.011,8.202,2.847c1.17,0.954,2.115,2.075,2.809,3.334 c0.718,1.297,1.148,2.704,1.277,4.18c0.131,1.521-0.066,3.017-0.586,4.446c-0.537,1.474-1.387,2.81-2.528,3.972l0,0 c-2.372,2.417-5.633,3.751-9.184,3.759C58.594,63.819,58.586,63.819,58.578,63.819z M58.612,42.682c-0.005,0-0.009,0-0.014,0 c-2.71,0.003-5.315,0.911-7.333,2.555c-1.029,0.84-1.86,1.828-2.468,2.933c-0.625,1.136-0.997,2.356-1.104,3.626 c-0.115,1.317,0.055,2.612,0.504,3.85c0.467,1.281,1.211,2.445,2.212,3.461c2.1,2.136,5,3.312,8.168,3.312c0.007,0,0.015,0,0.022,0 c3.172-0.006,6.08-1.192,8.187-3.339c1-1.019,1.744-2.187,2.211-3.471c0.45-1.236,0.62-2.53,0.507-3.846 c-0.112-1.279-0.485-2.499-1.108-3.625c-0.607-1.102-1.437-2.085-2.466-2.925C63.918,43.581,61.319,42.682,58.612,42.682z"/><g><path fill="#fdfcef" d="M79.5,77c0,0,1.567,0,3.5,0s3.5-1.567,3.5-3.5c0-1.781-1.335-3.234-3.055-3.455 c0.028-0.179,0.055-0.358,0.055-0.545c0-1.933-1.567-3.5-3.5-3.5c-1.032,0-1.95,0.455-2.59,1.165C77.025,65.357,75.422,64,73.5,64 c-2.209,0-4,1.791-4,4c0,0.191,0.03,0.374,0.056,0.558C69.128,68.214,68.592,68,68,68c-1.228,0-2.245,0.887-2.455,2.055 C65.366,70.027,65.187,70,65,70c-1.933,0-3.5,1.567-3.5,3.5S63.067,77,65,77s7.5,0,7.5,0v0.5h7V77z"/><path fill="#472b29" d="M81.25,72.5c-0.138,0-0.25-0.112-0.25-0.25c0-1.223,0.995-2.218,2.218-2.218 c0.034,0.009,0.737-0.001,1.244,0.136c0.133,0.036,0.212,0.173,0.176,0.306c-0.036,0.134-0.173,0.213-0.306,0.176 c-0.444-0.12-1.1-0.12-1.113-0.118c-0.948,0-1.719,0.771-1.719,1.718C81.5,72.388,81.388,72.5,81.25,72.5z"/><circle cx="74.5" cy="77" r=".5" fill="#472b29"/><path fill="#472b29" d="M83,77.5h-3.5c-0.276,0-0.5-0.224-0.5-0.5s0.224-0.5,0.5-0.5H83c1.654,0,3-1.346,3-3 c0-1.496-1.125-2.768-2.618-2.959c-0.134-0.018-0.255-0.088-0.336-0.196s-0.115-0.244-0.094-0.377C82.975,69.814,83,69.66,83,69.5 c0-1.654-1.346-3-3-3c-0.85,0-1.638,0.355-2.219,1c-0.125,0.139-0.321,0.198-0.5,0.148c-0.182-0.049-0.321-0.195-0.36-0.379 C76.58,65.665,75.141,64.5,73.5,64.5c-1.93,0-3.5,1.57-3.5,3.5c0,0.143,0.021,0.28,0.041,0.418 c0.029,0.203-0.063,0.438-0.242,0.54c-0.179,0.102-0.396,0.118-0.556-0.01C68.878,68.655,68.449,68.5,68,68.5 c-0.966,0-1.792,0.691-1.963,1.644c-0.048,0.267-0.296,0.446-0.569,0.405C65.314,70.525,65.16,70.5,65,70.5c-1.654,0-3,1.346-3,3 s1.346,3,3,3h7.5c0.276,0,0.5,0.224,0.5,0.5s-0.224,0.5-0.5,0.5H65c-2.206,0-4-1.794-4-4s1.794-4,4-4 c0.059,0,0.116,0.002,0.174,0.006C65.588,68.32,66.711,67.5,68,67.5c0.349,0,0.689,0.061,1.011,0.18 c0.165-2.333,2.115-4.18,4.489-4.18c1.831,0,3.466,1.127,4.153,2.774C78.333,65.776,79.155,65.5,80,65.5c2.206,0,4,1.794,4,4 c0,0.048-0.001,0.095-0.004,0.142C85.739,70.09,87,71.669,87,73.5C87,75.706,85.206,77.5,83,77.5z"/><path fill="#472b29" d="M77.5,76.5c-0.159,0-0.841,0-1,0c-0.276,0-0.5,0.224-0.5,0.5c0,0.276,0.224,0.5,0.5,0.5 c0.159,0,0.841,0,1,0c0.276,0,0.5-0.224,0.5-0.5C78,76.724,77.776,76.5,77.5,76.5z"/></g><path fill="#472b29" d="M58.598,69.8h-0.033c-2.709,0-5.303-0.54-7.708-1.605c-0.252-0.112-0.366-0.407-0.254-0.66 c0.111-0.251,0.407-0.367,0.66-0.254c2.277,1.008,4.734,1.52,7.303,1.52c0.276,0,0.516,0.224,0.516,0.5S58.875,69.8,58.598,69.8z M48.418,66.786c-0.096,0-0.192-0.027-0.278-0.084c-0.741-0.497-1.445-1.054-2.092-1.654c-0.202-0.188-0.214-0.504-0.026-0.707 c0.188-0.202,0.503-0.215,0.707-0.026c0.608,0.565,1.271,1.089,1.968,1.556c0.229,0.154,0.291,0.465,0.137,0.694 C48.737,66.708,48.579,66.786,48.418,66.786z M44.386,62.942c-0.153,0-0.305-0.07-0.403-0.203c-1-1.357-1.757-2.843-2.25-4.418 c-0.31-0.983-0.494-2.208-0.502-2.677c-0.005-0.276,0.215-0.504,0.491-0.509c0.253,0.016,0.503,0.215,0.509,0.491 c0.007,0.41,0.188,1.546,0.456,2.395c0.46,1.47,1.167,2.857,2.101,4.125c0.164,0.223,0.117,0.536-0.105,0.699 C44.593,62.91,44.489,62.942,44.386,62.942z"/></svg>