<svg xmlns="http://www.w3.org/2000/svg"  viewBox="0 0 100 100" width="100px" height="100px" baseProfile="basic"><path d="M96,52c0,24.26-19.74,44-44,44S8,76.26,8,52c0-6.77,1.56-13.42,4.54-19.45l-7.06-7.26c-3.51-3.63-3.45-9.5,0.1-13.05 c1.72-1.73,4.13-2.72,6.61-2.72c1.78,0,3.5,0.5,4.97,1.43l8.81,5.61C33.49,11.02,42.59,8,52,8C76.26,8,96,27.74,96,52z" opacity=".3"/><path fill="#f2f2f2" d="M94,50c0,24.26-19.74,44-44,44S6,74.26,6,50c0-6.77,1.56-13.42,4.54-19.45l-7.06-7.26 c-3.51-3.63-3.45-9.5,0.1-13.05c1.72-1.73,4.13-2.72,6.61-2.72c1.78,0,3.5,0.5,4.97,1.43l8.81,5.61C31.49,9.02,40.59,6,50,6 C74.26,6,94,25.74,94,50z"/><path fill="#9ad4fc" d="M19.192,28.629C14.977,34.693,12.5,42.055,12.5,50c0,20.711,16.789,37.5,37.5,37.5 c3.786,0,7.439-0.567,10.884-1.61c14.743-15.841,0.15-27.945-5.634-34.265c1.588,0.295,3.072,0.46,4.479,0.531 C54.294,51.178,46.246,49.137,39.375,45C36.281,43.137,27.231,35.544,19.192,28.629z"/><path fill="#f4a3be" d="M81.474,29.624C74.79,19.321,63.195,12.5,50,12.5c-12.766,0-24.035,6.384-30.808,16.129 C27.231,35.544,36.281,43.137,39.375,45c6.871,4.137,14.919,6.178,20.354,7.156C76.097,52.977,80.6,39.396,81.474,29.624z"/><path fill="#fedeb3" d="M87.5,50c0-7.515-2.219-14.509-6.026-20.376c-0.949,10.613-6.166,25.731-26.224,22.001 c5.784,6.32,20.378,18.424,5.634,34.265C76.286,81.225,87.5,66.925,87.5,50z"/><path fill="#9aa2e6" d="M75,64.28c0,3.87-1.26,7.66-3.26,10.59c-1.95,1.9-4.15,3.53-6.55,4.85 c-4.36,2.41-9.36,3.78-14.69,3.78C33.66,83.5,20,69.84,20,53c0-2.7,0.35-5.32,1.01-7.81C21.24,57.83,31.56,68,44.25,68 c7.09,0,13.45-3.18,17.71-8.19c0.34-0.4,0.67-0.81,0.98-1.24l0.01-0.01c1.28-1.27,3.04-2.06,4.99-2.06c3.52,0,6.45,2.59,6.97,5.97 v0.04C74.97,62.85,75,64.28,75,64.28z"/><path fill="#707cc0" d="M56.499,53.819c-2.197,2.806-9.177,4.366-17.329-4.227c-0.758-0.799-29-31-29-31 C9.31,17.704,7.057,15.13,7.937,14.25c0.437-0.437,1.016-0.658,1.596-0.658c0.422,0,2.264,1.764,2.636,2c0,0,36.126,21.475,37,22 C59.169,43.591,58.696,51.02,56.499,53.819z"/><path fill="#40396e" d="M50,11c-9.83,0-18.83,3.66-25.69,9.7l-11.83-7.53c-1.65-1.05-3.96-0.81-5.35,0.59 c-1.66,1.66-1.68,4.37-0.05,6.06l9.63,9.9C13.09,35.63,11,42.58,11,50c0,21.5,17.5,39,39,39s39-17.5,39-39S71.5,11,50,11z M49.204,85.991C30.271,85.58,14.662,70.17,14.021,51.243c-0.238-7.034,1.554-13.649,4.849-19.293 c0.26-0.445,0.528-0.885,0.804-1.319c0.492-0.773,0.364-1.788-0.275-2.445L18.41,27.17l-9.18-9.44c-0.5-0.51-0.49-1.34,0.02-1.85 c0.42-0.42,1.13-0.49,1.63-0.18l11.19,7.12l1.266,0.807c0.763,0.486,1.755,0.397,2.422-0.214c0.388-0.355,0.785-0.702,1.192-1.043 c7.158-5.978,16.664-9.242,26.91-8.167c16.719,1.753,30.16,15.17,31.932,31.887C88.11,67.955,70.712,86.458,49.204,85.991z"/><path fill="#40396e" d="M50,11c-9.83,0-18.83,3.66-25.69,9.7l-11.83-7.53c-1.65-1.05-3.96-0.81-5.35,0.59 c-1.66,1.66-1.68,4.37-0.05,6.06l9.63,9.9C13.09,35.63,11,42.58,11,50c0,21.5,17.5,39,39,39s39-17.5,39-39S71.5,11,50,11z M49.204,85.991C30.271,85.58,14.662,70.17,14.021,51.243c-0.238-7.034,1.554-13.649,4.849-19.293 c0.26-0.445,0.528-0.885,0.804-1.319c0.492-0.773,0.364-1.788-0.275-2.445L18.41,27.17l-9.18-9.44c-0.5-0.51-0.49-1.34,0.02-1.85 c0.42-0.42,1.13-0.49,1.63-0.18l11.19,7.12l1.266,0.807c0.763,0.486,1.755,0.397,2.422-0.214c0.388-0.355,0.785-0.702,1.192-1.043 c7.158-5.978,16.664-9.242,26.91-8.167c16.719,1.753,30.16,15.17,31.932,31.887C88.11,67.955,70.712,86.458,49.204,85.991z"/><path fill="#f2f2f2" d="M62.125,62.5L50,54c0,0-0.5-4.375,5-6c5.75,5,12.625,10,12.625,10L62.125,62.5z"/><path fill="#707cc0" d="M75,64.28c0,3.87-1.26,7.66-3.26,10.59c-1.95,1.9-4.15,3.53-6.55,4.85 c0.79-1.23,1.52-3.38,1.52-4.82c0-2.14-0.97-4.06-2.49-5.35c-0.24-0.2-0.36-0.22-0.8-0.57c-1.55-1.28-2.55-3.23-2.55-5.42 c0-1.38,0.39-2.67,1.09-3.75c0.27-0.45,0.6-0.87,0.98-1.24l0.01-0.01c1.28-1.27,3.04-2.06,4.99-2.06c3.52,0,6.45,2.59,6.97,5.97 v0.04C74.97,62.85,75,64.28,75,64.28z"/></svg>