<svg width="1000" height="1000" viewBox="0 0 1000 1000" fill="none" xmlns="http://www.w3.org/2000/svg">
<g clip-path="url(#clip0_4_6)">
<g clip-path="url(#clip1_4_6)">
<g clip-path="url(#clip2_4_6)">
<g clip-path="url(#clip3_4_6)">
<path d="M499.857 979.72C764.878 979.72 979.72 764.878 979.72 499.857C979.72 234.836 764.878 19.9943 499.857 19.9943C234.836 19.9943 19.9943 234.836 19.9943 499.857C19.9943 764.878 234.836 979.72 499.857 979.72Z" fill="#374151"/>
<g clip-path="url(#clip4_4_6)">
<g clip-path="url(#clip5_4_6)">
<path d="M833.207 637.283C831.858 621.803 824.439 608.342 809.6 597.574C808.251 590.843 810.949 580.748 812.298 577.382C812.973 576.036 812.298 574.017 811.624 573.344C810.949 571.998 808.926 571.325 807.577 571.998C805.553 571.998 802.181 572.671 791.389 586.805C783.97 582.767 776.551 579.402 769.806 577.382C769.131 569.306 773.178 559.883 773.178 559.883C773.853 558.537 773.178 556.518 772.504 555.845C771.829 554.499 769.806 553.826 768.457 554.499C767.108 554.499 762.386 555.172 748.897 573.344C746.199 573.344 743.501 572.671 741.477 572.671C736.756 571.998 732.034 571.998 726.639 571.325C725.29 560.556 730.685 546.423 730.685 546.423C731.36 545.076 730.685 543.057 730.011 542.384C729.336 541.038 727.313 540.365 725.964 541.038C721.243 541.711 712.474 549.788 701.683 564.595C697.636 563.249 693.589 561.229 690.216 558.537C690.216 547.769 697.636 534.308 698.31 534.308C698.985 532.962 698.985 531.616 698.31 530.269C697.636 528.923 696.287 528.25 694.263 528.25C692.24 528.25 688.193 528.25 672.68 542.384C671.331 541.038 669.307 539.019 667.284 537C660.539 530.943 651.77 521.52 648.398 516.809C647.724 516.136 647.724 516.136 647.049 515.463C637.606 497.963 616.697 481.81 584.996 467.676C580.949 465.657 575.554 464.311 568.134 462.292C582.298 444.793 613.325 433.351 621.419 436.043C628.838 438.063 634.908 454.889 636.932 464.311C636.932 465.657 638.281 467.003 640.304 467.676C641.653 468.35 643.677 467.677 645.026 466.33C653.794 456.235 653.119 444.12 651.096 436.717C661.213 440.755 674.029 458.254 679.424 468.35C679.424 469.023 680.099 469.696 680.773 469.696C697.636 481.81 686.844 504.021 686.169 505.367C685.495 506.713 685.495 508.059 686.169 509.405C686.844 510.751 688.193 511.424 690.216 511.424C695.612 511.424 701.008 509.405 704.38 504.694C715.172 491.906 711.125 462.965 710.451 460.273C709.102 452.197 707.753 427.967 715.172 418.544C716.521 416.525 718.545 415.179 721.243 415.179C738.105 413.16 756.316 425.948 759.688 427.967C761.037 430.659 761.712 433.351 761.037 436.043C758.339 444.793 745.524 452.196 740.128 454.216C738.105 454.889 737.43 456.908 737.43 458.927C737.43 460.946 739.454 462.292 740.803 462.965C754.967 465.657 765.759 462.965 773.853 455.562C788.691 441.428 784.644 414.506 784.644 413.16C784.644 412.487 784.644 411.814 783.97 411.141L738.105 343.164L737.43 342.491C732.709 339.798 630.861 244.226 599.161 215.285C578.251 196.44 524.967 186.345 443.354 186.345C442.68 186.345 442.005 186.345 441.331 186.345H439.307C434.586 186.345 430.539 186.345 427.166 187.018C425.143 187.018 422.445 187.691 421.096 187.018C421.096 187.018 421.096 186.345 421.096 184.998C421.096 180.96 435.26 168.845 450.773 158.077C452.797 156.731 453.471 154.712 452.122 152.692C451.448 150.673 449.424 150 447.401 150L415.7 156.731H415.026C403.559 161.442 394.791 167.499 389.395 173.557C388.721 173.557 388.046 173.557 387.372 173.557L364.439 182.306C360.392 183.652 325.993 193.748 329.366 212.593C332.064 226.054 344.879 237.496 359.718 250.284C387.372 274.513 422.445 304.127 421.771 370.085C421.096 423.929 406.257 438.063 406.257 438.736L405.583 439.409C390.744 442.101 377.254 439.409 365.788 430.659L371.184 415.852C371.859 413.833 371.184 412.487 369.835 411.141C368.486 409.795 366.463 409.795 365.114 410.468L351.624 417.871C349.6 415.179 347.577 412.487 345.554 409.795C344.879 409.122 344.879 408.449 344.205 407.103L356.345 397.007C357.694 395.661 358.369 393.642 357.694 392.296C357.02 390.277 355.671 389.604 353.647 389.604H335.436C335.436 389.604 335.436 388.93 334.762 388.93C333.413 386.238 333.413 386.238 333.413 383.546C333.413 383.546 333.413 382.873 333.413 382.2L350.949 374.124C352.298 373.45 353.647 371.431 353.647 370.085C353.647 368.066 352.298 366.72 350.275 366.047L330.715 360.663C330.715 357.971 330.04 356.624 329.366 354.605V353.932L344.205 339.125C345.554 337.779 345.554 335.76 344.879 334.414C344.205 333.068 342.181 331.722 340.832 331.722L324.644 332.395C322.621 326.337 321.272 322.299 319.249 318.261C325.993 314.896 336.111 309.511 338.134 308.165C340.158 306.819 340.832 304.8 339.483 302.781C338.809 300.762 336.111 300.089 334.087 300.762C331.389 301.435 320.598 301.435 312.504 300.762C318.574 296.724 322.621 292.012 322.621 292.012C323.97 290.666 323.97 288.647 322.621 287.301C321.947 285.955 319.923 285.282 318.574 285.282C317.225 285.282 315.202 285.955 313.178 285.955C307.108 286.628 296.991 288.647 290.92 287.974C299.014 275.859 319.249 264.418 327.342 261.052C329.366 260.379 330.04 257.687 330.04 255.668C329.366 253.649 327.342 252.303 325.319 252.303C283.501 256.341 266.639 274.513 259.219 285.282C250.451 288.647 244.381 295.378 238.31 302.108C232.914 308.165 226.844 314.896 218.75 319.607C197.166 331.722 189.073 341.144 188.398 341.144C185.7 343.837 184.351 347.875 183.677 351.913C182.328 358.644 185.026 365.374 190.422 369.412C191.771 370.085 193.12 370.758 194.469 370.085C195.818 369.412 197.166 368.739 197.166 367.393V366.72L199.19 368.066C200.539 368.739 201.888 369.412 203.237 368.739C204.586 368.066 205.935 366.72 205.935 365.374L206.609 362.682L207.958 363.355C209.307 364.028 209.982 364.028 211.331 363.355C212.68 362.682 213.354 362.009 214.029 360.663L219.425 357.971C224.146 357.971 229.542 357.971 234.263 357.971C232.914 359.317 232.24 361.336 231.565 362.682H230.891C229.542 362.009 228.193 362.682 227.518 363.355C226.169 363.355 225.495 364.701 224.82 366.047L224.146 368.739H222.122C220.774 368.739 219.425 368.739 218.75 370.085C218.076 370.758 217.401 372.104 217.401 373.45V375.47H214.703C213.354 375.47 212.005 376.143 211.331 376.816C210.656 377.489 209.982 378.835 209.982 380.181L210.656 386.911C209.982 392.296 212.005 394.315 213.354 395.661C218.076 399.026 226.169 395.661 229.542 393.642C229.542 393.642 229.542 393.642 230.216 393.642C234.263 390.95 237.636 388.257 241.008 385.565C254.498 374.797 263.941 367.393 271.36 369.412C278.779 372.104 279.454 385.565 279.454 392.969V394.988C280.128 414.506 282.152 423.929 284.85 435.37L285.524 437.39C289.571 455.562 299.014 467.676 310.48 481.137C310.48 481.137 310.48 481.137 311.155 481.81L319.923 489.214C303.061 508.732 314.527 547.096 319.923 561.902L281.477 557.864C280.803 557.864 280.803 557.864 280.128 557.864C279.454 557.864 263.941 560.556 257.196 572.671C253.823 578.729 248.427 584.113 243.706 588.824C240.334 592.189 236.961 595.555 234.938 598.247C228.193 607.669 234.938 628.534 236.287 633.245C236.961 635.264 238.985 636.61 241.008 635.937C243.032 635.937 244.381 634.591 245.055 632.572L247.753 617.092C249.102 615.746 251.8 613.727 254.498 611.035C253.823 614.4 253.823 617.765 254.498 619.784C254.498 620.457 254.498 621.13 255.172 622.476C256.521 630.553 257.87 642.668 265.964 646.033C267.313 646.706 269.337 646.706 270.011 645.36C271.36 644.687 272.034 642.668 272.034 641.322L270.686 626.515C272.709 625.169 275.407 622.476 278.105 618.438C282.826 611.708 286.199 602.958 286.873 598.92L301.037 594.882C305.084 596.901 315.876 601.612 328.691 605.65C325.993 615.073 320.598 631.226 316.551 637.956C314.527 641.322 309.806 646.033 305.759 651.417C294.967 663.532 288.897 671.608 288.897 676.993C288.897 676.993 288.897 702.568 299.688 705.261C300.363 705.261 301.712 705.934 302.386 706.607C306.433 708.626 311.829 711.318 317.9 709.299C321.272 707.953 324.644 705.261 326.668 700.549C327.342 699.203 327.342 697.857 326.668 696.511C325.993 695.165 324.644 694.492 323.295 694.492C323.295 694.492 315.202 693.146 313.178 687.762C317.9 685.069 323.97 679.685 326.668 674.974C328.017 676.32 329.366 677.666 329.366 679.012C331.389 684.396 332.738 695.165 332.738 698.53C332.738 702.568 337.46 710.645 342.181 716.702C342.856 718.048 344.205 718.722 345.554 718.722C346.228 718.722 346.228 718.722 346.903 718.722C348.926 718.048 350.275 716.702 350.275 714.683L351.624 691.127C357.02 684.396 364.439 671.608 355.671 659.494C350.275 652.763 363.765 627.861 375.231 613.054C376.58 613.054 377.929 612.381 379.278 612.381C386.023 610.362 390.744 604.977 393.442 598.247C398.838 598.247 423.794 597.574 446.727 595.555C451.448 605.65 470.334 644.687 485.847 661.513C490.568 666.897 491.243 672.955 487.196 680.358C481.125 690.454 469.659 697.184 464.938 696.511C452.797 693.819 435.26 701.895 429.864 704.588C419.073 703.915 412.328 706.607 408.955 712.664C404.234 720.741 409.63 730.163 409.63 730.836C410.304 732.182 411.653 732.855 413.677 732.855H414.351C416.375 732.855 417.724 731.509 417.724 729.49C417.724 728.817 418.398 726.798 419.747 726.125C421.096 725.452 423.12 726.125 425.143 728.144C435.935 734.875 445.378 730.836 450.099 726.125L483.823 727.471C483.149 728.817 482.474 730.163 481.8 731.509C481.125 732.855 481.125 734.875 481.8 736.221C483.149 737.567 484.498 738.24 486.521 737.567C486.521 737.567 498.662 734.201 510.128 735.548C508.779 737.567 506.756 740.259 505.407 742.951C496.639 761.123 504.058 771.219 504.732 771.219C505.407 771.892 506.756 772.565 508.105 772.565H508.779C510.128 771.892 511.477 771.219 512.152 769.2C514.175 761.123 518.897 750.355 523.618 750.355C529.014 750.355 532.386 747.662 535.084 745.643C539.806 742.278 545.876 737.567 564.087 738.24C564.762 738.24 565.436 738.24 566.111 737.567L576.902 732.855C582.298 734.201 601.859 738.913 599.835 751.701C599.835 753.72 600.51 755.066 601.858 755.739C603.207 756.412 605.231 756.412 606.58 755.739C607.929 755.066 618.046 746.989 617.372 736.894C616.697 730.163 611.976 724.779 603.207 720.068C601.184 717.375 594.439 710.645 585.671 707.953C590.392 697.184 599.161 679.685 609.952 676.32C610.627 676.32 610.627 675.647 611.301 675.647C611.976 674.974 628.163 663.532 624.791 648.725C623.442 641.995 618.046 638.629 612.65 635.264C605.905 631.226 600.51 626.515 599.835 616.419C599.161 606.996 605.231 600.939 613.325 594.882C623.442 598.247 686.169 619.784 734.058 619.784C785.993 619.784 792.738 633.245 798.134 656.128C800.158 662.859 796.785 673.628 790.04 687.088L780.597 689.108C768.457 691.8 754.967 694.492 752.269 694.492C748.222 694.492 736.081 701.222 727.313 707.28C725.964 707.953 725.29 709.972 725.29 711.991C725.964 714.01 727.313 715.356 729.336 715.356L738.779 716.702L733.383 720.068C727.313 724.106 721.917 730.163 717.87 736.221L711.125 748.335C710.451 749.681 710.451 751.701 711.8 753.047C713.149 754.393 715.172 755.066 716.521 754.393L731.36 748.335L713.149 776.603C712.474 778.622 712.474 780.641 713.823 781.988C714.498 782.661 715.847 783.334 716.521 783.334C717.196 783.334 717.87 783.334 718.545 782.661C719.894 781.988 741.477 769.2 755.641 759.104L751.595 772.565C750.92 774.584 751.595 776.603 752.943 777.276C754.292 778.622 756.316 778.622 758.339 777.276C760.363 775.257 780.597 759.777 783.97 745.643C783.97 744.97 783.97 744.297 784.644 743.624L788.017 751.701C788.691 753.72 790.715 754.393 792.738 754.393C794.762 754.393 796.111 753.047 796.785 751.028C796.785 750.354 800.832 728.144 800.832 718.722V705.934C812.298 693.819 835.231 667.57 833.207 637.283ZM800.832 588.151C800.832 589.497 800.832 590.17 800.832 591.516L799.483 590.17C799.483 590.17 800.158 588.824 800.832 588.151ZM761.712 569.979C761.712 571.325 761.712 572.671 761.712 574.69L759.014 574.017C759.688 572.671 760.363 571.325 761.712 569.979ZM717.87 555.172C717.196 559.21 716.521 563.249 717.196 567.287L709.776 565.268C712.474 561.902 715.847 557.864 717.87 555.172ZM681.448 549.788L678.075 546.423C680.099 544.403 682.122 542.384 684.146 541.038C682.797 544.403 682.122 547.096 681.448 549.788ZM556.668 458.254C538.457 452.87 509.454 443.447 497.313 439.409L518.897 402.391C531.037 382.2 522.269 344.51 508.105 309.511C528.339 326.337 569.483 364.701 611.976 425.948C595.788 427.967 568.809 440.082 556.668 458.254ZM641.653 425.275H623.442C563.413 336.433 502.709 292.685 502.034 292.685C500.685 289.32 498.662 285.955 497.313 281.917C512.826 286.628 546.551 298.743 566.111 317.588C585.671 337.106 628.163 397.68 647.049 424.602C644.351 425.275 643.002 425.275 641.653 425.275ZM640.304 449.504C638.281 444.793 636.257 438.736 632.885 434.024H638.955C640.304 437.39 641.653 443.447 640.304 449.504ZM662.562 434.024C658.515 428.64 597.137 337.779 571.507 312.204C545.202 285.955 494.615 272.494 491.243 271.821C488.545 266.437 485.172 261.052 482.474 256.341C503.383 261.725 559.366 277.878 580.949 300.762C591.067 311.531 677.401 404.41 697.636 467.676L690.891 469.023C688.867 466.33 686.844 463.638 684.146 461.619C681.448 456.908 672.68 443.447 662.562 434.024ZM694.263 497.29C695.612 491.233 696.287 483.83 694.263 477.099L699.659 476.426C699.659 483.83 698.31 492.579 694.263 497.29ZM716.521 404.41C711.8 405.084 707.753 407.103 704.38 411.141C698.31 419.217 696.961 432.678 696.961 443.447C667.284 380.854 595.788 304.127 587.02 294.704C558.691 264.418 479.102 246.245 475.729 245.572C467.636 233.458 460.891 225.381 456.844 222.689C452.797 219.997 448.75 217.305 445.378 213.939C471.683 215.958 551.272 222.689 577.577 242.207C608.603 265.091 721.243 372.777 748.222 411.814C739.454 407.103 727.987 403.064 716.521 404.41ZM764.41 446.812C761.712 449.504 758.339 451.523 754.293 452.196C759.014 448.158 764.41 442.774 766.433 436.717C767.108 433.351 767.108 430.659 766.433 427.294H772.504C771.155 434.024 769.131 441.428 764.41 446.812ZM441.331 195.767C520.246 195.767 574.205 205.19 593.09 222.016C623.442 249.611 720.568 340.471 727.313 346.529L772.504 413.16C772.504 414.506 772.504 416.525 773.178 419.217H762.386C753.618 390.95 616.697 259.706 582.973 234.804C549.249 209.901 442.005 204.517 437.284 204.517C436.609 204.517 436.609 204.517 435.935 204.517C433.237 201.152 430.539 198.459 428.515 195.767C431.213 195.767 434.586 195.094 438.633 195.094L441.331 195.767ZM418.398 166.153L429.864 164.134C423.12 169.518 417.049 175.576 414.351 180.96L399.512 177.595C404.234 173.557 410.304 169.518 418.398 166.153ZM366.463 244.899C352.298 232.785 340.832 222.689 338.809 211.92C337.46 204.517 354.996 195.767 367.812 191.729L382.65 186.345C381.301 191.056 381.301 195.094 381.976 197.786L374.556 199.132C371.859 199.805 370.51 201.825 371.184 203.844C371.859 205.863 373.208 207.209 375.231 207.209H375.905L385.348 205.863C471.008 271.821 494.615 377.489 474.381 405.083C462.914 421.237 439.307 430.659 421.096 436.043C420.422 436.043 420.422 436.043 419.747 436.043C425.143 425.948 431.888 406.43 431.888 370.758C432.562 301.435 394.791 268.456 366.463 244.899ZM341.507 400.372L340.832 399.026H342.856L341.507 400.372ZM333.413 374.124L332.738 371.431L336.785 372.777L333.413 374.124ZM328.017 345.856C328.017 345.183 327.342 343.837 327.342 342.491H331.389L328.017 345.856ZM315.876 312.204C315.202 311.531 315.202 310.858 314.527 310.184C315.876 310.184 317.225 310.184 319.249 310.184C317.9 311.531 316.551 311.531 315.876 312.204ZM303.735 296.724C303.735 296.724 304.41 296.724 305.084 296.051C305.084 296.724 304.41 296.724 303.735 296.724ZM303.061 267.11C295.642 272.494 288.222 279.224 284.175 286.628C280.803 286.628 276.756 285.955 272.709 285.955C278.105 279.898 287.548 272.494 303.061 267.11ZM345.554 662.859C352.973 672.955 341.507 684.396 341.507 684.396C340.832 685.069 340.158 686.415 340.158 687.088L339.483 697.857C339.483 697.184 339.483 697.184 339.483 697.184C339.483 693.819 338.134 681.031 335.436 674.301C333.413 668.916 326.668 662.186 321.272 663.532C318.574 664.205 316.551 666.224 316.551 670.262C316.551 672.282 310.48 677.666 304.41 681.031C303.061 681.704 302.386 683.05 302.386 685.069C302.386 693.146 307.782 697.857 313.853 700.549C311.829 701.222 308.457 699.876 305.759 698.53C304.41 697.857 303.061 697.184 301.712 696.511C299.688 694.492 297.665 684.396 297.665 676.993C297.665 673.628 307.108 663.532 312.504 656.802C317.225 651.417 321.947 646.033 324.644 641.995C329.366 634.591 335.436 616.419 338.134 607.669C346.228 609.689 354.996 611.708 363.09 612.381C352.298 624.495 336.785 650.744 345.554 662.859ZM446.727 714.683C445.378 714.683 444.029 715.356 443.354 716.029C442.68 716.702 435.935 723.433 427.841 718.048C422.445 714.683 418.398 714.01 414.351 715.356C413.677 715.356 413.677 716.029 413.002 716.029C413.002 715.356 413.002 714.683 413.677 714.01C415.026 711.318 420.422 709.972 427.841 710.645C428.515 710.645 429.19 710.645 429.864 709.972C435.26 707.28 451.448 700.549 460.216 702.568C469.659 704.588 484.498 695.165 491.917 682.377C497.988 671.608 497.313 660.84 489.894 652.763C476.404 638.629 459.542 604.977 453.471 592.189C459.542 591.516 465.612 590.843 470.334 590.17L508.779 584.786C508.105 587.478 508.105 590.17 507.43 593.536C506.756 602.958 508.779 611.035 512.826 618.438C512.826 619.111 512.826 620.457 513.501 621.13C522.944 637.956 533.061 658.821 533.061 662.859C533.061 666.897 526.99 676.32 522.269 681.031L503.383 705.261C503.383 705.261 503.383 705.934 502.709 705.934C497.313 709.299 492.592 712.664 489.219 716.702L446.727 714.683ZM532.386 639.302C536.433 641.995 539.806 644.687 543.178 647.379C552.621 653.436 561.389 659.494 561.389 664.878C561.389 667.57 559.366 670.935 555.319 674.974C547.225 682.377 543.853 687.762 541.829 691.8C538.457 697.184 537.782 697.857 518.222 700.549C517.548 700.549 516.873 700.549 516.199 701.222L527.665 687.088C529.688 684.396 540.48 672.282 540.48 662.859C540.48 658.821 536.433 649.398 532.386 639.302ZM588.369 615.746C589.043 630.553 598.486 636.61 605.231 641.322C609.952 644.687 612.65 646.706 613.325 649.398C614.674 656.128 607.254 664.205 603.882 666.897C585.671 673.628 574.205 705.261 572.856 708.626C572.181 709.972 572.856 711.318 573.53 712.664C574.205 714.01 575.554 714.683 576.902 714.683C586.345 714.683 594.439 724.779 594.439 724.779C595.114 725.452 595.114 725.452 595.788 726.125C600.51 728.144 605.905 732.182 605.905 736.221C605.905 738.24 605.231 739.586 604.556 741.605C598.486 727.471 575.553 723.433 574.205 723.433C573.53 723.433 572.181 723.433 571.507 723.433L560.715 728.144C539.806 727.471 532.386 732.855 526.99 736.894C524.293 738.913 522.944 739.586 520.92 739.586C516.199 739.586 512.826 742.278 510.128 745.643C510.128 745.643 510.128 744.97 510.803 744.97C518.222 730.836 532.386 723.433 532.386 723.433C534.41 722.087 535.084 720.068 534.41 717.375C533.061 715.356 531.037 714.683 528.339 715.356C527.665 715.356 520.92 719.395 514.175 726.125C506.756 724.106 498.662 724.779 491.917 725.452C497.988 717.375 506.081 711.318 518.897 709.299C540.48 706.607 543.178 705.261 548.574 696.511C550.597 693.146 553.97 688.435 560.715 681.704C566.785 675.647 569.483 670.262 569.483 664.205C568.809 654.782 558.691 648.052 547.225 639.975C531.037 629.207 512.826 617.092 514.85 594.209C518.897 547.096 567.46 514.789 568.134 514.789C570.158 513.443 570.832 510.751 569.483 508.732C568.134 506.713 565.436 506.04 563.413 507.386C561.389 508.732 521.595 534.308 509.454 576.036L467.636 582.094C446.727 585.459 404.908 586.805 392.768 587.478C396.815 567.287 391.419 541.038 390.744 536.327C390.07 533.635 388.046 532.289 385.348 532.962C382.65 533.635 381.301 535.654 381.976 538.346C385.348 553.153 390.07 597.574 373.207 602.285C363.09 604.977 348.926 602.285 335.436 598.247C334.762 598.247 334.762 597.574 334.087 597.574C333.413 597.574 333.413 597.574 332.738 597.574C316.551 592.189 302.386 586.132 301.712 585.459C301.037 584.786 299.688 584.786 298.339 585.459L280.803 590.17C279.454 590.843 278.105 591.516 277.43 593.536C277.43 593.536 274.732 605.65 269.337 612.381C265.964 617.092 263.941 618.438 263.266 618.438C262.592 618.438 261.917 618.438 261.917 619.111C261.917 618.438 261.917 617.765 261.917 617.092C261.243 613.727 263.266 603.631 264.615 598.247C265.29 596.228 264.615 594.209 262.592 593.536C260.568 592.862 258.545 592.862 257.196 594.209C249.776 601.612 239.659 609.689 239.659 609.689C239.659 606.323 239.659 603.631 241.008 601.612C243.032 598.92 245.73 595.555 249.102 592.862C254.498 587.478 259.894 581.421 263.941 574.69C267.988 566.614 278.105 564.595 280.128 563.922L342.181 570.652C344.879 570.652 346.903 569.306 346.903 566.614C346.903 563.922 345.554 561.902 342.856 561.902L328.691 560.556C321.947 544.403 310.48 504.021 328.691 489.887C330.04 489.214 330.04 487.868 330.04 486.522C330.04 485.176 329.366 483.83 328.691 483.156L316.551 473.061C305.759 460.946 297.665 449.504 293.618 433.351L292.944 431.332C290.246 419.89 288.222 411.141 287.548 392.969V390.95C287.548 381.527 287.548 364.028 273.383 359.317C261.917 355.278 250.451 364.028 234.938 376.816C231.565 379.508 228.193 382.2 224.82 384.892C222.797 386.238 220.774 386.911 218.75 386.911V386.238C218.75 385.565 218.75 385.565 218.75 384.892V382.873H220.099C221.448 382.873 222.797 382.873 223.471 381.527C225.495 381.527 226.169 380.181 226.169 379.508V377.489H227.518C229.542 377.489 231.565 376.143 232.24 374.124V372.777C234.263 372.777 236.287 372.104 236.961 370.085C238.31 367.393 241.683 360.663 245.73 357.297C247.078 355.951 247.753 353.932 247.078 352.586C246.404 350.567 244.381 349.894 243.032 349.894C243.032 349.894 226.844 350.567 216.052 350.567C214.029 350.567 212.68 351.24 212.005 353.259L210.656 356.624L208.633 355.278C207.284 354.605 205.935 354.605 204.586 355.278C203.237 355.951 202.562 357.297 201.888 357.971V359.317L200.539 357.971C199.19 357.297 197.841 356.624 196.492 357.297C195.818 357.297 195.143 357.971 194.469 358.644C194.469 357.297 194.469 355.951 194.469 355.278C195.143 352.586 195.818 349.894 197.166 348.548C197.166 348.548 205.26 339.798 224.82 329.03C234.938 323.645 241.008 316.242 247.078 309.511C253.149 302.781 257.87 297.397 264.615 294.704C273.383 294.704 282.826 295.378 284.85 295.378H285.524C286.199 295.378 286.199 296.051 286.873 296.051C291.595 298.743 296.991 302.781 298.339 304.127C299.014 305.473 301.037 307.492 304.41 312.204C306.433 314.896 309.131 318.261 309.806 319.607C309.806 319.607 309.806 319.607 309.806 320.28C311.155 322.972 316.551 339.798 320.598 355.278L324.644 381.527C324.644 383.546 325.319 384.892 325.319 385.565C325.993 389.604 325.993 390.277 328.017 393.642C328.691 394.315 328.691 395.661 329.366 396.334L335.436 409.122C336.785 411.141 337.46 413.16 338.809 414.506C341.507 418.544 344.205 422.583 348.251 426.621L358.369 435.37C375.231 449.504 396.14 452.87 419.073 444.793H419.747C439.307 439.409 466.287 428.64 479.776 410.468C505.407 375.47 475.055 265.764 390.07 199.805C389.395 198.459 388.046 194.421 390.07 189.037C390.744 187.691 391.419 186.345 392.093 184.998L411.653 189.71C412.328 191.056 413.002 193.075 414.351 194.421C415.026 195.094 416.375 195.767 417.049 195.767C419.073 198.459 433.911 219.324 451.448 230.092C468.31 240.188 533.735 359.99 510.803 398.353L487.87 440.082C487.196 441.428 487.196 442.774 487.87 444.12C488.545 445.466 489.219 446.139 490.568 446.812C491.243 446.812 535.759 462.292 558.017 468.35C568.134 470.369 574.879 472.388 579.6 474.407C616.023 490.56 636.932 508.059 640.979 527.577C645.7 546.423 632.885 562.576 626.14 569.979C622.768 574.69 617.372 578.056 611.301 582.767C600.51 589.497 587.694 598.92 588.369 615.746ZM792.064 718.048C792.064 721.414 791.389 727.471 790.715 733.528L788.691 728.817C788.017 726.798 785.993 726.125 784.644 726.125C782.621 726.125 781.272 727.471 780.597 728.817C780.597 729.49 777.9 736.894 776.551 743.624C775.202 749.008 770.48 755.066 765.759 759.777L769.131 748.335C769.806 746.316 769.131 744.297 767.108 743.624C765.084 742.278 763.061 742.951 761.712 744.297C757.665 748.335 741.477 758.431 729.336 766.508L744.175 740.259C744.85 738.913 744.85 736.894 743.501 735.548C742.152 734.201 740.128 733.528 738.779 734.201L723.941 740.259L724.615 738.913C727.313 733.528 732.034 728.817 736.756 725.452L751.595 715.356C752.944 714.01 753.618 712.664 753.618 710.645C752.943 708.626 751.595 707.28 749.571 707.28L740.803 705.934C745.524 703.242 748.897 701.222 750.246 701.222C754.292 701.222 775.876 696.511 780.597 695.838L787.342 694.492C787.342 695.165 788.017 696.511 788.691 697.184C790.04 699.203 791.389 700.549 793.413 701.222C792.738 701.895 792.738 702.568 792.738 703.915V718.048H792.064ZM799.483 693.819C797.46 693.819 796.111 693.146 795.436 691.8C794.762 691.127 795.436 690.454 795.436 689.781C804.205 673.628 807.577 660.84 804.879 651.417C797.46 622.476 784.644 608.342 732.034 608.342C691.565 608.342 638.281 592.189 619.395 585.459C624.791 581.421 629.512 577.382 633.559 572.671C639.63 565.268 651.771 549.788 651.096 530.269C653.794 533.635 657.166 536.327 659.864 539.019C663.237 542.384 666.609 545.749 667.958 547.096L681.448 559.883C686.844 563.922 692.24 565.941 698.985 568.633L700.334 569.306L720.568 574.69C727.313 576.036 733.383 576.709 739.454 576.709C742.826 576.709 746.199 577.382 748.897 577.382L763.735 580.075C771.829 582.094 779.923 586.132 789.366 591.516L802.181 599.593C814.996 609.015 822.416 620.457 823.09 633.918C825.788 655.455 816.345 675.647 799.483 693.819Z" fill="#FFBE79"/>
<path d="M255.847 316.242C249.102 318.261 247.079 324.991 247.079 324.991C247.079 325.664 247.079 327.01 248.428 327.01C251.126 328.356 253.149 328.356 255.847 328.356C264.615 328.356 268.662 320.28 268.662 320.28C268.662 319.607 268.662 318.934 267.988 318.261C267.988 318.261 262.592 314.896 255.847 316.242Z" fill="#FFBE79"/>
</g>
</g>
</g>
</g>
</g>
</g>
<defs>
<clipPath id="clip0_4_6">
<rect width="1000" height="1000" fill="white"/>
</clipPath>
<clipPath id="clip1_4_6">
<rect width="1000" height="1000" fill="white" transform="translate(-0.142212 -0.142212)"/>
</clipPath>
<clipPath id="clip2_4_6">
<rect width="999.714" height="999.714" fill="white"/>
</clipPath>
<clipPath id="clip3_4_6">
<rect width="999.714" height="999.714" fill="white"/>
</clipPath>
<clipPath id="clip4_4_6">
<rect width="650" height="633.333" fill="white" transform="translate(183.333 150)"/>
</clipPath>
<clipPath id="clip5_4_6">
<rect width="650" height="633.333" fill="white" transform="translate(183.333 150)"/>
</clipPath>
</defs>
</svg>
